<svg width="90" height="34" viewBox="0 0 90 34" fill="none" xmlns="http://www.w3.org/2000/svg">
<path d="M87.4279 17.4423C86.1459 23.4582 84.3315 24.9518 83.342 25.3799C82.7921 25.6178 82.1899 25.6735 81.4628 25.6263C81.1166 25.6038 80.7852 25.5621 80.404 25.5141C80.3733 25.5102 80.3422 25.5063 80.3108 25.5024L80.3072 25.5019C79.9345 25.4551 79.4293 25.3916 78.9469 25.3916C78.4453 25.3916 77.9248 25.477 77.5746 25.5346C77.5136 25.5447 77.4543 25.5545 77.3963 25.5641C77.0615 25.6197 76.7706 25.668 76.4579 25.7018C75.75 25.7781 75.1658 25.747 74.6312 25.5332C73.6818 25.1536 71.8065 23.712 70.4656 17.4407C70.0298 15.4023 70.1481 14.025 70.4609 13.1001C70.7618 12.2105 71.2972 11.5729 72.0398 11.0788C73.6691 9.99487 76.2393 9.63924 78.9469 9.63924C81.2286 9.63924 83.8342 10.0708 85.5773 11.2396C86.3989 11.7905 86.9946 12.4799 87.3332 13.369C87.676 14.2693 87.8276 15.5665 87.4279 17.4423Z" stroke="#2F2E41" stroke-width="4.66667"/>
<path d="M82.1304 3.12419C81.0343 3.79977 79.9819 5.27268 79.4105 6.16417C79.1996 6.49323 79.4287 6.90399 79.8168 6.89463C80.9421 6.86751 82.9188 6.71672 84.0569 6.02976C85.1874 5.34736 85.9684 3.85471 86.3366 3.01631C86.471 2.71038 86.2672 2.38189 85.9359 2.37028C85.0191 2.33814 83.3146 2.39422 82.1304 3.12419Z" fill="#2F2E41"/>
<path d="M59.8825 9.44356H64.7031V26.034C64.7031 27.6293 64.3407 28.9799 63.6161 30.0859C62.8914 31.2026 61.8779 32.0481 60.5756 32.6224C59.2838 33.2073 57.7715 33.4998 56.0386 33.4998C55.2719 33.4998 54.4895 33.3987 53.6913 33.1967C52.8931 33.0052 52.1475 32.7181 51.4543 32.3352C50.7612 31.9524 50.1783 31.4791 49.7057 30.9155L51.9269 27.7569C52.3575 28.2461 52.8984 28.6609 53.5495 29.0012C54.2007 29.3521 54.9674 29.5276 55.8496 29.5276C56.6162 29.5276 57.2569 29.3894 57.7715 29.1128C58.2966 28.8363 58.6957 28.4322 58.9688 27.9005C59.2418 27.3794 59.3784 26.7466 59.3784 26.0021V13.5274L59.8825 9.44356ZM48.5557 18.2812V17.9462C48.5557 16.6381 48.7132 15.447 49.0283 14.3728C49.3538 13.2881 49.8159 12.3575 50.4146 11.5812C51.0237 10.7942 51.7589 10.188 52.6201 9.76261C53.4813 9.33721 54.4527 9.12451 55.5345 9.12451C56.7003 9.12451 57.656 9.35316 58.4016 9.81046C59.1578 10.2571 59.7617 10.8846 60.2133 11.6928C60.6754 12.5011 61.0325 13.4476 61.2845 14.5324C61.5471 15.6065 61.7677 16.7657 61.9462 18.01V18.4088C61.7677 19.5786 61.5208 20.6847 61.2058 21.7269C60.9012 22.7585 60.5021 23.6731 60.0085 24.4707C59.5149 25.2683 58.8953 25.8958 58.1496 26.3531C57.4144 26.7998 56.5322 27.0231 55.503 27.0231C54.4317 27.0231 53.4655 26.8051 52.6043 26.369C51.7536 25.933 51.0237 25.3215 50.4146 24.5345C49.8159 23.7475 49.3538 22.8223 49.0283 21.7588C48.7132 20.6953 48.5557 19.5361 48.5557 18.2812ZM53.8646 17.9462V18.2812C53.8646 18.9299 53.9224 19.5308 54.0379 20.0838C54.1639 20.6368 54.353 21.126 54.605 21.5514C54.8571 21.9662 55.1669 22.2905 55.5345 22.5245C55.9126 22.7585 56.3537 22.8755 56.8578 22.8755C57.6245 22.8755 58.2441 22.7106 58.7167 22.3809C59.1893 22.0513 59.5306 21.5833 59.7407 20.9771C59.9507 20.3709 60.04 19.6584 60.0085 18.8395V17.5793C60.0295 16.8774 59.9822 16.2605 59.8667 15.7288C59.7512 15.1864 59.5674 14.7344 59.3153 14.3728C59.0738 14.0113 58.7482 13.7401 58.3386 13.5593C57.9395 13.3678 57.4564 13.2721 56.8893 13.2721C56.3957 13.2721 55.9598 13.3891 55.5818 13.6231C55.2037 13.8571 54.8886 14.1867 54.6365 14.6121C54.3845 15.0269 54.1902 15.5214 54.0537 16.0957C53.9276 16.6594 53.8646 17.2762 53.8646 17.9462Z" fill="#2F2E41"/>
<path d="M34.5602 13.1286V26.704H29.2512V9.44356H34.2293L34.5602 13.1286ZM33.93 17.4836L32.6855 17.5155C32.6855 16.1967 32.843 15.0216 33.1581 13.99C33.4732 12.9478 33.9195 12.0651 34.4972 11.3419C35.0748 10.6187 35.7627 10.071 36.5609 9.6988C37.3696 9.31594 38.2675 9.12451 39.2547 9.12451C40.0424 9.12451 40.7618 9.2415 41.413 9.47546C42.0746 9.70943 42.6417 10.087 43.1144 10.6081C43.5975 11.1292 43.965 11.8205 44.2171 12.6819C44.4797 13.5327 44.6109 14.5855 44.6109 15.8405V26.704H39.2705V15.8245C39.2705 15.1332 39.176 14.6068 38.9869 14.2452C38.7979 13.873 38.5248 13.6178 38.1677 13.4795C37.8107 13.3413 37.3748 13.2721 36.8602 13.2721C36.3141 13.2721 35.852 13.3785 35.4739 13.5912C35.0958 13.8039 34.7912 14.1017 34.5602 14.4845C34.3396 14.8567 34.1768 15.2981 34.0718 15.8086C33.9773 16.319 33.93 16.8774 33.93 17.4836Z" fill="#2F2E41"/>
<path d="M24.4559 9.44386V26.7043H19.1312V9.44386H24.4559ZM18.8162 4.99314C18.8162 4.22743 19.0892 3.59997 19.6353 3.11076C20.1815 2.62156 20.8904 2.37695 21.7621 2.37695C22.6338 2.37695 23.3427 2.62156 23.8888 3.11076C24.4349 3.59997 24.708 4.22743 24.708 4.99314C24.708 5.75886 24.4349 6.38632 23.8888 6.87553C23.3427 7.36473 22.6338 7.60933 21.7621 7.60933C20.8904 7.60933 20.1815 7.36473 19.6353 6.87553C19.0892 6.38632 18.8162 5.75886 18.8162 4.99314Z" fill="#2F2E41"/>
<path d="M15.1549 22.3971V26.7042H3.56031V22.3971H15.1549ZM5.5295 3.47754V26.7042H0V3.47754H5.5295Z" fill="#2F2E41"/>
</svg>
