<svg fill="none" height="25" viewBox="0 0 130 25" width="130" xmlns="http://www.w3.org/2000/svg"><g fill="#fff"><path d="m0 23.3092v-22.30896h10.5615c2.7176 0 4.7558.53116 6.1146 1.5935 1.3793 1.06231 2.069 2.4646 2.069 4.20678 0 1.1686-.2779 2.18841-.8338 3.05957-.5559.84991-1.3175 1.50851-2.2852 1.97591-.9676.4674-2.0794.7011-3.3352.7011l.5868-1.3066c1.3588 0 2.5631.2337 3.6131.7011 1.0499.4462 1.8632 1.1154 2.4396 2.0078.5971.8924.8956 1.9865.8956 3.2826 0 1.9122-.7309 3.4101-2.1926 4.4936-1.4617 1.0623-3.6132 1.5936-6.4543 1.5936zm4.97193-3.8882h5.83657c1.2971 0 2.275-.2125 2.9338-.6374.6794-.4461 1.0191-1.1473 1.0191-2.1034 0-.9349-.3397-1.6254-1.0191-2.0715-.6588-.4675-1.6367-.7012-2.9338-.7012h-6.20715v-3.7607h5.34251c1.21464 0 2.14114-.21238 2.77944-.63731.6588-.44622.9881-1.11544.9881-2.00776 0-.87116-.3293-1.5192-.9881-1.94413-.6383-.44611-1.5648-.66922-2.77944-.66922h-4.97193z"/><path d="m55.3652 23.3092 9.635-22.30896h4.9412l9.6658 22.30896h-5.2498l-7.9057-19.69561h1.9765l-7.9367 19.69561zm4.8176-4.7805 1.3278-3.92h11.1175l1.3587 3.92z"/><path d="m83.6982 23.3092v-22.30896h9.3571c1.9353 0 3.6029.32932 5.0028.98797 1.4001.63739 2.4809 1.56163 3.2429 2.77268.761 1.21106 1.142 2.6558 1.142 4.33425 0 1.65726-.381 3.09146-1.142 4.30246-.762 1.1898-1.8428 2.1034-3.2429 2.7407-1.3999.6375-3.0675.9562-5.0028.9562h-6.5778l2.2236-2.2627v8.4774zm13.7424 0-5.4044-8.0951h5.3426l5.4662 8.0951zm-8.7395-7.9038-2.2236-2.4221h6.2999c1.5441 0 2.697-.3399 3.4587-1.0198.7618-.7011 1.1427-1.6573 1.1427-2.86836 0-1.23223-.3809-2.18841-1.1427-2.86821-.7617-.67992-1.9146-1.01982-3.4587-1.01982h-6.2999l2.2236-2.45403z"/><path d="m108.26 23.3092v-22.30896h9.82c2.346 0 4.416.46743 6.207 1.40227 1.792.9136 3.191 2.19902 4.199 3.85629 1.01 1.65716 1.514 3.62246 1.514 5.8959 0 2.2522-.504 4.2175-1.514 5.8959-1.008 1.6573-2.407 2.9532-4.199 3.8881-1.791.9137-3.861 1.3705-6.207 1.3705zm5.002-4.2388h4.571c1.44 0 2.686-.2761 3.736-.8286 1.071-.5737 1.895-1.381 2.471-2.4221.597-1.0411.896-2.2627.896-3.665 0-1.4236-.299-2.64521-.896-3.66503-.576-1.0411-1.4-1.83781-2.471-2.39023-1.05-.57371-2.296-.86057-3.736-.86057h-4.571z"/><g clip-rule="evenodd" fill-rule="evenodd"><path d="m26 12.5c0 6.9036 5.4229 12.5 12.1124 12.5s12.1124-5.5964 12.1124-12.5c0-6.90355-5.4229-12.5-12.1124-12.5v1.87501c5.6861 0 10.2956 4.75699 10.2956 10.62499 0 5.8681-4.6095 10.625-10.2956 10.625-5.686 0-10.2956-4.7569-10.2956-10.625z"/><path d="m41.5467 19.0476c-3.5369 1.9579-7.9423.5861-9.8395-3.064l-1.6011.8862c2.3715 4.5627 7.8782 6.2775 12.2994 3.8301 4.4213-2.4474 6.0828-8.1303 3.7113-12.69302-2.3715-4.56271-7.8782-6.27748-12.2995-3.83004l.8589 1.65233c3.537-1.95798 7.9423-.58611 9.8396 3.06399 1.8972 3.65024.5679 8.19644-2.9691 10.15444z"/><path d="m40.7807 15.8658c1.8161-1.5249 2.0906-4.2805.613-6.15478-1.4776-1.8743-4.1477-2.15751-5.9639-.63262-1.8162 1.5249-2.0906 4.2805-.613 6.1548 1.4776 1.8742 4.1477 2.1575 5.9639.6326zm1.1465 1.4544c2.5946-2.1784 2.9867-6.115.8758-8.79248-2.1108-2.67751-5.9252-3.08216-8.5198-.90374-2.5946 2.17832-2.9866 6.11492-.8758 8.79252 2.1109 2.6775 5.9254 3.0821 8.5198.9037z"/></g></g></svg>